<svg width="61" height="61" viewBox="0 0 61 61" fill="none" xmlns="http://www.w3.org/2000/svg">
<path d="M6.875 60.875C5.01875 60.875 3.41563 60.2281 2.06563 58.9344C0.771876 57.5844 0.125 55.9813 0.125 54.125V6.875C0.125 5.01875 0.771876 3.44375 2.06563 2.15C3.41563 0.800001 5.01875 0.125 6.875 0.125H54.125C55.9813 0.125 57.5563 0.800001 58.85 2.15C60.2 3.44375 60.875 5.01875 60.875 6.875V54.125C60.875 55.9813 60.2 57.5844 58.85 58.9344C57.5563 60.2281 55.9813 60.875 54.125 60.875H6.875ZM6.875 54.125H54.125V6.875H6.875V54.125ZM10.25 47.375H50.75L38.0938 30.5L27.9688 44L20.375 33.875L10.25 47.375ZM6.875 54.125V6.875V54.125Z" fill="#1D1B20"/>
</svg>
