<svg width="22" height="22" viewBox="0 0 22 22" fill="none" xmlns="http://www.w3.org/2000/svg">
<path d="M6.68 0.440186C3.23959 0.440186 0.439996 3.23978 0.439996 6.68019V15.3202C0.439996 18.7606 3.23959 21.5602 6.68 21.5602H15.32C18.7604 21.5602 21.56 18.7606 21.56 15.3202V6.68019C21.56 3.23978 18.7604 0.440186 15.32 0.440186H6.68ZM6.68 1.40019H15.32C18.2415 1.40019 20.6 3.75868 20.6 6.68019V15.3202C20.6 18.2417 18.2415 20.6002 15.32 20.6002H6.68C3.75849 20.6002 1.4 18.2417 1.4 15.3202V6.68019C1.4 3.75868 3.75849 1.40019 6.68 1.40019ZM16.76 4.28019C16.2298 4.28019 15.8 4.70999 15.8 5.24019C15.8 5.77038 16.2298 6.20019 16.76 6.20019C17.2902 6.20019 17.72 5.77038 17.72 5.24019C17.72 4.70999 17.2902 4.28019 16.76 4.28019ZM11 5.72019C8.08962 5.72019 5.72 8.08981 5.72 11.0002C5.72 13.9106 8.08962 16.2802 11 16.2802C13.9104 16.2802 16.28 13.9106 16.28 11.0002C16.28 8.08981 13.9104 5.72019 11 5.72019ZM11 6.68019C13.3916 6.68019 15.32 8.60863 15.32 11.0002C15.32 13.3917 13.3916 15.3202 11 15.3202C8.60844 15.3202 6.68 13.3917 6.68 11.0002C6.68 8.60863 8.60844 6.68019 11 6.68019Z" fill="black"/>
</svg>
