<svg width="24" height="24" viewBox="0 0 24 24" fill="none" xmlns="http://www.w3.org/2000/svg">
<path d="M11.88 0C5.32524 0 0 5.32524 0 11.88C0 17.8303 4.38887 22.7547 10.105 23.6134L10.7251 23.7073V14.3459H7.91859V12.4453H10.7251V9.92145C10.7251 8.36728 11.0981 7.34369 11.7155 6.70149C12.3329 6.05929 13.2451 5.73539 14.5146 5.73539C15.5297 5.73539 15.9246 5.7969 16.3002 5.84297V7.39864H14.9787C14.2288 7.39864 13.6136 7.81699 13.2943 8.37422C12.975 8.93145 12.8756 9.59678 12.8756 10.2748V12.4443H16.1821L15.8878 14.3448H12.8756V23.722L13.4884 23.6387C19.2857 22.8525 23.76 17.8885 23.76 11.88C23.76 5.32524 18.4348 0 11.88 0ZM11.88 1.08C17.8511 1.08 22.68 5.90892 22.68 11.88C22.68 17.1341 18.9193 21.4552 13.9556 22.4279V15.4248H16.8138L17.4414 11.3643H13.9556V10.2748C13.9556 9.71453 14.0581 9.21256 14.2309 8.91105C14.4037 8.60955 14.5702 8.47863 14.9787 8.47863H17.3802V4.86527L16.9119 4.80199C16.588 4.75816 15.8486 4.65539 14.5146 4.65539C13.0549 4.65539 11.802 5.05302 10.9371 5.95265C10.0722 6.85229 9.64512 8.19186 9.64512 9.92144V11.3653H6.8386V15.4259H9.64512V22.3942C4.76119 21.3596 1.08001 17.0772 1.08001 11.88C1.08001 5.90892 5.90892 1.08 11.88 1.08Z" fill="black"/>
</svg>
