<svg width="21" height="21" viewBox="0 0 21 21" fill="none" xmlns="http://www.w3.org/2000/svg">
<path d="M3.49998 0C1.57282 0 -1.52588e-05 1.57283 -1.52588e-05 3.5V17.5C-1.52588e-05 19.4272 1.57282 21 3.49998 21H17.5C19.4272 21 21 19.4272 21 17.5V3.5C21 1.57283 19.4272 0 17.5 0H3.49998ZM3.49998 1H17.5C18.8868 1 20 2.11316 20 3.5V17.5C20 18.8868 18.8868 20 17.5 20H3.49998C2.11315 20 0.999985 18.8868 0.999985 17.5V3.5C0.999985 2.11316 2.11315 1 3.49998 1ZM4.54295 4.5L9.15428 11.0518L4.49999 16.5H5.74999L9.71874 11.8535L12.9883 16.5H16.957L11.8945 9.30664L16 4.5H14.75L11.3301 8.50488L8.51171 4.5H4.54295ZM6.45702 5.5H7.98924L15.0429 15.5H13.5107L6.45702 5.5Z" fill="black"/>
</svg>
